<mxfile host="app.diagrams.net" agent="Mozilla/5.0 (Windows NT 10.0; Win64; x64) AppleWebKit/537.36 (KHTML, like Gecko) Chrome/127.0.0.0 Safari/537.36" version="24.7.6">
  <diagram id="C5RBs43oDa-KdzZeNtuy" name="Page-1">
    <mxGraphModel dx="1537" dy="1131" grid="1" gridSize="10" guides="1" tooltips="1" connect="1" arrows="1" fold="1" page="1" pageScale="1" pageWidth="827" pageHeight="1169" math="0" shadow="0">
      <root>
        <mxCell id="WIyWlLk6GJQsqaUBKTNV-0" />
        <mxCell id="WIyWlLk6GJQsqaUBKTNV-1" parent="WIyWlLk6GJQsqaUBKTNV-0" />
        <mxCell id="WIyWlLk6GJQsqaUBKTNV-3" value="&lt;font style=&quot;font-size: 9px;&quot;&gt;시작&lt;/font&gt;" style="rounded=1;whiteSpace=wrap;html=1;fontSize=9;glass=0;strokeWidth=1;shadow=0;fontFamily=Helvetica;" parent="WIyWlLk6GJQsqaUBKTNV-1" vertex="1">
          <mxGeometry x="300" y="80" width="120" height="30" as="geometry" />
        </mxCell>
        <mxCell id="6nSIEELNB8U2dUVsh297-1" value="&lt;font style=&quot;font-size: 9px;&quot;&gt;단어 선택 (랜덤)&lt;/font&gt;" style="rounded=1;whiteSpace=wrap;html=1;fontSize=9;fontFamily=Helvetica;" parent="WIyWlLk6GJQsqaUBKTNV-1" vertex="1">
          <mxGeometry x="300" y="140" width="120" height="30" as="geometry" />
        </mxCell>
        <mxCell id="6nSIEELNB8U2dUVsh297-2" value="" style="endArrow=classic;html=1;rounded=0;exitX=0.5;exitY=1;exitDx=0;exitDy=0;fontSize=9;fontFamily=Helvetica;" parent="WIyWlLk6GJQsqaUBKTNV-1" source="6nSIEELNB8U2dUVsh297-1" edge="1">
          <mxGeometry width="50" height="50" relative="1" as="geometry">
            <mxPoint x="390" y="310" as="sourcePoint" />
            <mxPoint x="360" y="200" as="targetPoint" />
          </mxGeometry>
        </mxCell>
        <mxCell id="6nSIEELNB8U2dUVsh297-3" value="&lt;font style=&quot;font-size: 9px;&quot;&gt;글자수에 맞춰 &quot;-&quot; 표시&lt;/font&gt;" style="rounded=1;whiteSpace=wrap;html=1;fontSize=9;fontFamily=Helvetica;" parent="WIyWlLk6GJQsqaUBKTNV-1" vertex="1">
          <mxGeometry x="300" y="200" width="120" height="30" as="geometry" />
        </mxCell>
        <mxCell id="6nSIEELNB8U2dUVsh297-6" value="" style="endArrow=classic;html=1;rounded=0;exitX=0.5;exitY=1;exitDx=0;exitDy=0;fontSize=9;fontFamily=Helvetica;" parent="WIyWlLk6GJQsqaUBKTNV-1" source="WIyWlLk6GJQsqaUBKTNV-3" edge="1">
          <mxGeometry width="50" height="50" relative="1" as="geometry">
            <mxPoint x="390" y="340" as="sourcePoint" />
            <mxPoint x="360" y="140" as="targetPoint" />
          </mxGeometry>
        </mxCell>
        <mxCell id="6nSIEELNB8U2dUVsh297-7" value="" style="endArrow=classic;html=1;rounded=0;exitX=0.5;exitY=1;exitDx=0;exitDy=0;fontSize=9;fontFamily=Helvetica;" parent="WIyWlLk6GJQsqaUBKTNV-1" edge="1">
          <mxGeometry width="50" height="50" relative="1" as="geometry">
            <mxPoint x="359.76" y="230" as="sourcePoint" />
            <mxPoint x="359.76" y="260" as="targetPoint" />
          </mxGeometry>
        </mxCell>
        <mxCell id="6nSIEELNB8U2dUVsh297-8" value="&lt;span style=&quot;font-size: 9px;&quot;&gt;문자 입력받기&lt;/span&gt;" style="rounded=1;whiteSpace=wrap;html=1;fontSize=9;fontFamily=Helvetica;" parent="WIyWlLk6GJQsqaUBKTNV-1" vertex="1">
          <mxGeometry x="300" y="260" width="120" height="30" as="geometry" />
        </mxCell>
        <mxCell id="6nSIEELNB8U2dUVsh297-9" value="" style="endArrow=classic;html=1;rounded=0;exitX=0.5;exitY=1;exitDx=0;exitDy=0;fontSize=9;fontFamily=Helvetica;" parent="WIyWlLk6GJQsqaUBKTNV-1" edge="1">
          <mxGeometry width="50" height="50" relative="1" as="geometry">
            <mxPoint x="359.76" y="290" as="sourcePoint" />
            <mxPoint x="359.76" y="320" as="targetPoint" />
          </mxGeometry>
        </mxCell>
        <mxCell id="6nSIEELNB8U2dUVsh297-10" value="문자가 단어에 있는지 확인" style="rhombus;whiteSpace=wrap;html=1;fontSize=9;fontFamily=Helvetica;" parent="WIyWlLk6GJQsqaUBKTNV-1" vertex="1">
          <mxGeometry x="280" y="320" width="160" height="50" as="geometry" />
        </mxCell>
        <mxCell id="6nSIEELNB8U2dUVsh297-12" value="&quot;-&quot; 를 입력한 문자로 변경" style="rounded=1;whiteSpace=wrap;html=1;fontSize=9;fontFamily=Helvetica;" parent="WIyWlLk6GJQsqaUBKTNV-1" vertex="1">
          <mxGeometry x="180" y="400" width="120" height="30" as="geometry" />
        </mxCell>
        <mxCell id="6nSIEELNB8U2dUVsh297-15" value="" style="edgeStyle=segmentEdgeStyle;endArrow=classic;html=1;curved=0;rounded=0;endSize=8;startSize=8;exitX=0;exitY=0.5;exitDx=0;exitDy=0;entryX=0.5;entryY=0;entryDx=0;entryDy=0;" parent="WIyWlLk6GJQsqaUBKTNV-1" source="6nSIEELNB8U2dUVsh297-10" target="6nSIEELNB8U2dUVsh297-12" edge="1">
          <mxGeometry width="50" height="50" relative="1" as="geometry">
            <mxPoint x="190" y="320" as="sourcePoint" />
            <mxPoint x="240" y="270" as="targetPoint" />
            <Array as="points">
              <mxPoint x="240" y="345" />
              <mxPoint x="240" y="400" />
            </Array>
          </mxGeometry>
        </mxCell>
        <mxCell id="6nSIEELNB8U2dUVsh297-16" value="yes" style="edgeLabel;html=1;align=center;verticalAlign=middle;resizable=0;points=[];" parent="6nSIEELNB8U2dUVsh297-15" vertex="1" connectable="0">
          <mxGeometry x="-0.3179" y="-2" relative="1" as="geometry">
            <mxPoint x="11" as="offset" />
          </mxGeometry>
        </mxCell>
        <mxCell id="6nSIEELNB8U2dUVsh297-17" value="" style="edgeStyle=segmentEdgeStyle;endArrow=classic;html=1;curved=0;rounded=0;endSize=8;startSize=8;exitX=1;exitY=0.5;exitDx=0;exitDy=0;entryX=0.5;entryY=0;entryDx=0;entryDy=0;" parent="WIyWlLk6GJQsqaUBKTNV-1" source="6nSIEELNB8U2dUVsh297-10" edge="1">
          <mxGeometry width="50" height="50" relative="1" as="geometry">
            <mxPoint x="530" y="345" as="sourcePoint" />
            <mxPoint x="480" y="400" as="targetPoint" />
          </mxGeometry>
        </mxCell>
        <mxCell id="6nSIEELNB8U2dUVsh297-18" value="No" style="edgeLabel;html=1;align=center;verticalAlign=middle;resizable=0;points=[];" parent="6nSIEELNB8U2dUVsh297-17" vertex="1" connectable="0">
          <mxGeometry x="-0.3179" y="-2" relative="1" as="geometry">
            <mxPoint x="-12" y="-2" as="offset" />
          </mxGeometry>
        </mxCell>
        <mxCell id="6nSIEELNB8U2dUVsh297-21" value="Lose of life" style="rounded=1;whiteSpace=wrap;html=1;fontSize=9;fontFamily=Helvetica;" parent="WIyWlLk6GJQsqaUBKTNV-1" vertex="1">
          <mxGeometry x="420" y="400" width="120" height="30" as="geometry" />
        </mxCell>
        <mxCell id="6nSIEELNB8U2dUVsh297-22" value="" style="endArrow=classic;html=1;rounded=0;exitX=0.5;exitY=1;exitDx=0;exitDy=0;" parent="WIyWlLk6GJQsqaUBKTNV-1" source="6nSIEELNB8U2dUVsh297-12" edge="1">
          <mxGeometry width="50" height="50" relative="1" as="geometry">
            <mxPoint x="270" y="490" as="sourcePoint" />
            <mxPoint x="240" y="460" as="targetPoint" />
          </mxGeometry>
        </mxCell>
        <mxCell id="6nSIEELNB8U2dUVsh297-23" value="&quot;-&quot;이 다 없어졌는가?" style="rounded=1;whiteSpace=wrap;html=1;fontSize=9;fontFamily=Helvetica;" parent="WIyWlLk6GJQsqaUBKTNV-1" vertex="1">
          <mxGeometry x="180" y="460" width="120" height="30" as="geometry" />
        </mxCell>
        <mxCell id="6nSIEELNB8U2dUVsh297-24" value="" style="edgeStyle=segmentEdgeStyle;endArrow=classic;html=1;curved=0;rounded=0;endSize=8;startSize=8;entryX=-0.009;entryY=0.637;entryDx=0;entryDy=0;entryPerimeter=0;exitX=-0.001;exitY=0.652;exitDx=0;exitDy=0;exitPerimeter=0;" parent="WIyWlLk6GJQsqaUBKTNV-1" source="6nSIEELNB8U2dUVsh297-23" target="6nSIEELNB8U2dUVsh297-8" edge="1">
          <mxGeometry width="50" height="50" relative="1" as="geometry">
            <mxPoint x="130" y="480" as="sourcePoint" />
            <mxPoint x="210" y="310" as="targetPoint" />
            <Array as="points">
              <mxPoint x="130" y="480" />
              <mxPoint x="130" y="279" />
            </Array>
          </mxGeometry>
        </mxCell>
        <mxCell id="6nSIEELNB8U2dUVsh297-25" value="No" style="edgeLabel;html=1;align=center;verticalAlign=middle;resizable=0;points=[];" parent="6nSIEELNB8U2dUVsh297-24" vertex="1" connectable="0">
          <mxGeometry x="-0.9025" y="-1" relative="1" as="geometry">
            <mxPoint as="offset" />
          </mxGeometry>
        </mxCell>
        <mxCell id="6nSIEELNB8U2dUVsh297-30" value="" style="endArrow=classic;html=1;rounded=0;exitX=0.5;exitY=1;exitDx=0;exitDy=0;" parent="WIyWlLk6GJQsqaUBKTNV-1" edge="1">
          <mxGeometry width="50" height="50" relative="1" as="geometry">
            <mxPoint x="479.76" y="430" as="sourcePoint" />
            <mxPoint x="479.76" y="460" as="targetPoint" />
          </mxGeometry>
        </mxCell>
        <mxCell id="6nSIEELNB8U2dUVsh297-31" value="아직 기회가 남았는가?" style="rounded=1;whiteSpace=wrap;html=1;fontSize=9;fontFamily=Helvetica;" parent="WIyWlLk6GJQsqaUBKTNV-1" vertex="1">
          <mxGeometry x="420" y="460" width="120" height="30" as="geometry" />
        </mxCell>
        <mxCell id="6nSIEELNB8U2dUVsh297-32" value="" style="edgeStyle=segmentEdgeStyle;endArrow=classic;html=1;curved=0;rounded=0;endSize=8;startSize=8;entryX=-0.009;entryY=0.637;entryDx=0;entryDy=0;entryPerimeter=0;exitX=-0.001;exitY=0.652;exitDx=0;exitDy=0;exitPerimeter=0;" parent="WIyWlLk6GJQsqaUBKTNV-1" edge="1">
          <mxGeometry width="50" height="50" relative="1" as="geometry">
            <mxPoint x="538.9999999999995" y="481" as="sourcePoint" />
            <mxPoint x="419.99999999999955" y="280" as="targetPoint" />
            <Array as="points">
              <mxPoint x="588.9999999999995" y="481" />
              <mxPoint x="588.9999999999995" y="280" />
            </Array>
          </mxGeometry>
        </mxCell>
        <mxCell id="6nSIEELNB8U2dUVsh297-33" value="No" style="edgeLabel;html=1;align=center;verticalAlign=middle;resizable=0;points=[];" parent="6nSIEELNB8U2dUVsh297-32" vertex="1" connectable="0">
          <mxGeometry x="-0.9025" y="-1" relative="1" as="geometry">
            <mxPoint as="offset" />
          </mxGeometry>
        </mxCell>
        <mxCell id="6nSIEELNB8U2dUVsh297-34" value="" style="shape=partialRectangle;whiteSpace=wrap;html=1;bottom=1;right=1;left=1;top=0;fillColor=none;routingCenterX=-0.5;" parent="WIyWlLk6GJQsqaUBKTNV-1" vertex="1">
          <mxGeometry x="240" y="490" width="240" height="30" as="geometry" />
        </mxCell>
        <mxCell id="6nSIEELNB8U2dUVsh297-35" value="" style="endArrow=classic;html=1;rounded=0;exitX=0.5;exitY=1;exitDx=0;exitDy=0;" parent="WIyWlLk6GJQsqaUBKTNV-1" source="6nSIEELNB8U2dUVsh297-34" edge="1">
          <mxGeometry width="50" height="50" relative="1" as="geometry">
            <mxPoint x="350" y="600" as="sourcePoint" />
            <mxPoint x="360" y="580" as="targetPoint" />
          </mxGeometry>
        </mxCell>
        <mxCell id="6nSIEELNB8U2dUVsh297-37" value="&amp;nbsp; yes" style="text;html=1;align=center;verticalAlign=middle;resizable=0;points=[];autosize=1;strokeColor=none;fillColor=none;" parent="WIyWlLk6GJQsqaUBKTNV-1" vertex="1">
          <mxGeometry x="345" y="528" width="50" height="30" as="geometry" />
        </mxCell>
        <mxCell id="6nSIEELNB8U2dUVsh297-38" value="게임 종료" style="rounded=1;whiteSpace=wrap;html=1;fontSize=9;fontFamily=Helvetica;" parent="WIyWlLk6GJQsqaUBKTNV-1" vertex="1">
          <mxGeometry x="300" y="580" width="120" height="30" as="geometry" />
        </mxCell>
      </root>
    </mxGraphModel>
  </diagram>
</mxfile>
